# xmcd CD database file generated by OrangeCD 6.4
#
# Track frame offsets:
#	150
#	23624
#	40014
#	60172
#	76005
#	93126
#	116676
#	146537
#	173629
#	194260
#
# Disc length: 2901 seconds
#
# Revision: 0
# Processed by: cddbd v1.5.2PL0 Copyright (c) Steve Scherf et al.
# Submitted via: OrangeCD 6.4
#
DISCID=690b530a
DTITLE=Coke Weed - Nice Dreams
DYEAR=2011
DGENRE=
TTITLE0=Pure Pattern
TTITLE1=Sister Springs
TTITLE2=Magpie
TTITLE3=Jimmy
TTITLE4=Kid
TTITLE5=Golden Apples
TTITLE6=Someone So Young
TTITLE7=King of the Night
TTITLE8=No Poem
TTITLE9=Gangland
EXTD=
EXTT0=
EXTT1=
EXTT2=
EXTT3=
EXTT4=
EXTT5=
EXTT6=
EXTT7=
EXTT8=
EXTT9=
PLAYORDER=
